<?xml version="1.0" encoding="UTF-8"?>
<svg xmlns="http://www.w3.org/2000/svg" width="1200" height="800" viewBox="0 0 1200 800">
  <defs>
    <!-- Shell gradient -->
    <linearGradient id="shellGrad" x1="0%" y1="0%" x2="100%" y2="100%">
      <stop offset="0%" stop-color="#8B6F4E"/>
      <stop offset="35%" stop-color="#A88C6B"/>
      <stop offset="70%" stop-color="#6D5B45"/>
      <stop offset="100%" stop-color="#4D3E30"/>
    </linearGradient>
    <!-- Nacre / inner shell gradient -->
    <radialGradient id="nacreGrad" cx="50%" cy="50%" r="65%">
      <stop offset="0%" stop-color="#f8f9fd"/>
      <stop offset="45%" stop-color="#e9f0ff"/>
      <stop offset="80%" stop-color="#d6e4f5"/>
      <stop offset="100%" stop-color="#c0d0e6"/>
    </radialGradient>
    <!-- Meat gradient -->
    <linearGradient id="meatGrad" x1="0%" y1="0%" x2="100%" y2="100%">
      <stop offset="0%" stop-color="#f7d6a5"/>
      <stop offset="50%" stop-color="#f0bd7f"/>
      <stop offset="100%" stop-color="#e79f5f"/>
    </linearGradient>
    <!-- Shadow gradient for subtle depth -->
    <linearGradient id="shadowGrad" x1="0%" y1="0%" x2="0%" y2="100%">
      <stop offset="0%" stop-color="#000" stop-opacity="0.15"/>
      <stop offset="100%" stop-color="#000" stop-opacity="0"/>
    </linearGradient>
    <!-- Stroke style -->
    <style>
      .outline { stroke:#3c2f24; stroke-width:8; stroke-linejoin:round; stroke-linecap:round; fill:none; }
    </style>
    <!-- Drop shadow filter (soft) -->
    <filter id="softShadow" x="-20%" y="-20%" width="140%" height="140%">
      <feGaussianBlur in="SourceAlpha" stdDeviation="8" result="blur"/>
      <feOffset in="blur" dx="0" dy="6" result="offset"/>
      <feComponentTransfer>
        <feFuncA type="linear" slope="0.25"/>
      </feComponentTransfer>
      <feMerge>
        <feMergeNode in="offset"/>
        <feMergeNode in="SourceGraphic"/>
      </feMerge>
    </filter>
  </defs>

  <!-- Group for the whole abalone (no background rectangle, so transparent) -->
  <g id="abalone" transform="translate(140,60) scale(0.95)" filter="url(#softShadow)">
    <!-- Outer shell -->
    <path d="M 120 260
             C 140 140, 280 70, 480 60
             C 720 50, 980 160, 1020 320
             C 1060 480, 900 640, 640 700
             C 380 760, 180 640, 140 500
             C 110 400, 100 330, 120 260 Z"
          fill="url(#shellGrad)" stroke="#3c2f24" stroke-width="14" />

    <!-- Shell growth rings (subtle) -->
    <path d="M 170 300 C 210 220, 380 150, 590 150
             C 800 150, 980 230, 1000 330
             C 1020 430, 890 520, 700 560
             C 510 600, 310 560, 240 500"
          fill="none" stroke="#2e241b" stroke-opacity="0.25" stroke-width="10" />

    <!-- Inner nacre bowl -->
    <path d="M 200 340
             C 230 260, 400 190, 610 190
             C 820 190, 1010 280, 980 380
             C 950 480, 750 590, 560 610
             C 370 630, 230 540, 200 470
             C 190 420, 190 380, 200 340 Z"
          fill="url(#nacreGrad)" stroke="#3c2f24" stroke-width="10" />

    <!-- Meat (foot) -->
    <path d="M 300 430
             C 360 380, 500 350, 660 360
             C 820 370, 900 420, 890 480
             C 880 540, 770 600, 610 610
             C 450 620, 330 590, 300 540
             C 280 505, 280 460, 300 430 Z"
          fill="url(#meatGrad)" stroke="#5a3f2d" stroke-width="8" />

    <!-- Meat folds -->
    <path d="M 350 470 C 460 430, 750 430, 840 480"
          class="outline" stroke-opacity="0.18"/>
    <path d="M 335 505 C 470 470, 720 470, 810 520"
          class="outline" stroke-opacity="0.18"/>
    <path d="M 360 545 C 500 520, 700 520, 770 560"
          class="outline" stroke-opacity="0.18"/>

    <!-- Respiratory pores (shell holes) -->
    <g fill="#2a2219">
      <circle cx="260" cy="410" r="10"/>
      <circle cx="315" cy="370" r="10"/>
      <circle cx="380" cy="335" r="10"/>
      <circle cx="455" cy="310" r="9"/>
      <circle cx="535" cy="300" r="8"/>
      <circle cx="620" cy="305" r="7"/>
    </g>
    <g fill="#e9f0ff" opacity="0.65">
      <circle cx="260" cy="407" r="5"/>
      <circle cx="315" cy="367" r="5"/>
      <circle cx="380" cy="332" r="5"/>
      <circle cx="455" cy="307" r="4.5"/>
      <circle cx="535" cy="297" r="4.2"/>
      <circle cx="620" cy="302" r="4"/>
    </g>

    <!-- Subtle inner shadows for depth -->
    <path d="M 210 360
             C 260 270, 430 210, 620 210
             C 810 210, 970 285, 950 365
             C 930 445, 740 545, 560 565
             C 380 585, 240 510, 215 455
             C 205 420, 205 390, 210 360 Z"
          fill="url(#shadowGrad)" />

    <!-- Highlight glints on nacre -->
    <ellipse cx="520" cy="270" rx="70" ry="30" fill="#ffffff" opacity="0.25"/>
    <ellipse cx="720" cy="250" rx="40" ry="18" fill="#ffffff" opacity="0.18"/>
  </g>
</svg>
